<svg width="20" height="20" viewBox="0 0 20 20" fill="none" xmlns="http://www.w3.org/2000/svg">
<path fill-rule="evenodd" clip-rule="evenodd" d="M18.1522 5.59129C18.8642 6.16394 19.2822 7.02545 19.2913 7.93912L19.2826 15.913C19.2826 18.0789 17.5268 19.8348 15.3609 19.8348H13.6217C12.5734 19.8348 11.7222 18.9875 11.7174 17.9391V14.3391C11.7174 14.0606 11.4916 13.8348 11.213 13.8348H8.60435C8.46907 13.8347 8.33945 13.8891 8.24461 13.9855C8.14977 14.082 8.09767 14.2126 8.1 14.3478V15.7217C8.1 16.1539 7.74961 16.5043 7.31739 16.5043C6.88517 16.5043 6.53478 16.1539 6.53478 15.7217V14.3478C6.53478 13.7966 6.75374 13.268 7.14349 12.8783C7.53324 12.4885 8.06185 12.2696 8.61304 12.2696H11.2217C12.3661 12.2743 13.2913 13.2034 13.2913 14.3478V17.9391C13.2913 18.1216 13.4392 18.2696 13.6217 18.2696H15.4043C16.701 18.2696 17.7522 17.2184 17.7522 15.9217V7.95651C17.7458 7.51525 17.5415 7.10021 17.1957 6.82607L11.187 2.03477C10.4293 1.41097 9.33595 1.41097 8.57826 2.03477L6.64783 3.47825C6.29004 3.73518 5.79172 3.65342 5.53478 3.29564C5.27785 2.93785 5.35961 2.43953 5.71739 2.18259L7.62174 0.799986C8.94214 -0.261372 10.8231 -0.261372 12.1435 0.799986L18.1522 5.59129ZM4.42174 18.2609H8.42174V18.2782C8.85396 18.2782 9.20435 18.6286 9.20435 19.0609C9.20435 19.4931 8.85396 19.8435 8.42174 19.8435H4.42174C2.25781 19.8387 0.504782 18.0857 0.5 15.9217V7.95651C0.513835 7.03608 0.945876 6.172 1.67391 5.60868L2.39565 5.06955C2.73552 4.90933 3.14129 5.01326 3.36229 5.31714C3.58329 5.62101 3.55714 6.03906 3.3 6.31303L2.59565 6.83477C2.26191 7.11204 2.06776 7.52262 2.06522 7.95651V15.913C2.07474 17.2091 3.12562 18.2561 4.42174 18.2609Z" fill="black"/>
</svg>
